<svg xmlns="http://www.w3.org/2000/svg" viewBox="0 0 53.6 56.27"><defs><style>.cls-1{fill:#fff;}</style></defs><title>Asset 1</title><g id="Layer_2" data-name="Layer 2"><g id="Layer_1-2" data-name="Layer 1"><path class="cls-1" d="M0,22.87l5.27,28.5a5.93,5.93,0,0,0,5.79,4.9H42.54a5.93,5.93,0,0,0,5.79-4.9l5.27-28.5ZM17.15,35.63a1.49,1.49,0,1,1-3,0V31.18a1.49,1.49,0,1,1,3,0Zm22.27,0a1.49,1.49,0,1,1-3,0V31.18a1.49,1.49,0,1,1,3,0Z"/><path class="cls-1" d="M17.15,12.62a9.65,9.65,0,0,1,19.3,0v8.76h3V12.62a12.62,12.62,0,0,0-25.24,0v8.76h3Z"/></g></g></svg>