<svg xmlns="http://www.w3.org/2000/svg" viewBox="0 0 55.51 55.51"><defs><style>.cls-1{fill:#fff;stroke:#fff;stroke-miterlimit:10;stroke-width:1.99px;}</style></defs><title>Asset 3</title><g id="Layer_2" data-name="Layer 2"><g id="Layer_1-2" data-name="Layer 1"><path class="cls-1" d="M54.51,25.52H49.94A22.29,22.29,0,0,0,30,5.57V1H25.52V5.57a22.29,22.29,0,0,0-19.95,20H1V30H5.57a22.29,22.29,0,0,0,20,20v4.57H30V49.94a22.29,22.29,0,0,0,20-20h4.57ZM30,45.88V34.44H25.52V45.88A18.26,18.26,0,0,1,9.63,30H21.06V25.52H9.63A18.26,18.26,0,0,1,25.52,9.63V21.06H30V9.63a18.3,18.3,0,0,1,15.9,15.89H34.44V30H45.88A18.26,18.26,0,0,1,30,45.88Z"/></g></g></svg>