<svg xmlns="http://www.w3.org/2000/svg" viewBox="0 0 33.4 36.61"><defs><style>.cls-1{fill:#fff;}</style></defs><title>Asset 1</title><g id="Layer_2" data-name="Layer 2"><g id="Layer_1-2" data-name="Layer 1"><rect class="cls-1" x="11.59" y="8.06" width="3.33" height="10.29"/><rect class="cls-1" x="11.59" y="8.06" width="3.33" height="10.29" transform="translate(0.05 26.46) rotate(-90)"/><path class="cls-1" d="M13.26,26.51A13.26,13.26,0,1,1,26.51,13.26,13.27,13.27,0,0,1,13.26,26.51Zm0-24.67A11.38,11.38,0,1,0,24.64,13.22,11.39,11.39,0,0,0,13.26,1.84Z"/><path class="cls-1" d="M32.82,33.09l-10.42-11-3.19,2.68L29.82,36a2.1,2.1,0,0,0,1.5.63A2.05,2.05,0,0,0,32.76,36,2.07,2.07,0,0,0,32.82,33.09Z"/></g></g></svg>