<svg xmlns="http://www.w3.org/2000/svg" viewBox="0 0 34.54 34.52"><defs><style>.cls-1{fill:#fff;}</style></defs><title>Asset 1</title><g id="Layer_2" data-name="Layer 2"><g id="Layer_1-2" data-name="Layer 1"><path class="cls-1" d="M22.43,15.55l-3.12,1L15,18a.61.61,0,0,0-.44.44q-1.61,4.44-3.23,8.87c0,.07-.05.14-.11.28-.06-.16-.11-.27-.16-.39q-1.59-4.38-3.17-8.78A.64.64,0,0,0,7.42,18L.32,15.66,0,15.55l.44-.17c2.33-.77,4.65-1.55,7-2.31a.65.65,0,0,0,.46-.46l3.18-8.78c0-.11.09-.21.16-.37l1,2.69c.79,2.17,1.58,4.33,2.36,6.5a.59.59,0,0,0,.43.41l7,2.32Z"/><path class="cls-1" d="M34.54,6.9c-1.25.43-2.43.85-3.61,1.24a.71.71,0,0,0-.49.49c-.58,1.59-1.18,3.18-1.77,4.77l-.17.4-.83-2.22c-.38-1-.77-2-1.13-3a.59.59,0,0,0-.39-.38L22.47,6.9l.42-.16C24,6.36,25.08,6,26.17,5.59a.68.68,0,0,0,.35-.34C27.14,3.64,27.74,2,28.35.4c0-.12.09-.23.16-.4.39,1,.75,2,1.11,3,.29.76.57,1.51.85,2.27a.56.56,0,0,0,.4.4C32,6,33,6.36,34.12,6.74Z"/><path class="cls-1" d="M19,27.65c1.26-.44,2.45-.86,3.64-1.26A.65.65,0,0,0,23.1,26c.59-1.62,1.2-3.23,1.8-4.84,0-.1.09-.19.15-.36.39,1,.75,2,1.12,2.95.28.75.56,1.5.83,2.25a.64.64,0,0,0,.45.44c1.19.4,2.37.82,3.63,1.26l-.41.16-3.22,1.1a.63.63,0,0,0-.45.44q-.9,2.41-1.81,4.82l-.14.35c-.07-.15-.11-.25-.15-.35-.6-1.61-1.21-3.21-1.8-4.83a.63.63,0,0,0-.45-.43c-1.08-.36-2.15-.74-3.22-1.11Z"/></g></g></svg>