<svg xmlns="http://www.w3.org/2000/svg" viewBox="0 0 32 25.55"><defs><style>.cls-1{fill:#fff;}</style></defs><title>Asset 1</title><g id="Layer_2" data-name="Layer 2"><g id="Layer_1-2" data-name="Layer 1"><path class="cls-1" d="M32,5.65V24.21a1.78,1.78,0,0,1-1.83,1.34H1.64A1.46,1.46,0,0,1,0,23.9V10.84H4.6a1.81,1.81,0,1,0,0-3.61H0v-1A1.58,1.58,0,0,1,1.77,4.39H8.83A1.57,1.57,0,0,0,10.5,2.92c.08-.52.15-1,.24-1.54A1.52,1.52,0,0,1,12.33,0h7.29A1.55,1.55,0,0,1,21.19,1.3c.11.5.17,1,.24,1.51a1.61,1.61,0,0,0,1.8,1.58h7a3.24,3.24,0,0,1,.62.05A1.66,1.66,0,0,1,32,5.65Zm-23.66,10a7.74,7.74,0,1,0,7.74-7.73A7.74,7.74,0,0,0,8.34,15.65ZM26.07,9.09a1.81,1.81,0,1,0,1.81-1.81A1.82,1.82,0,0,0,26.07,9.09Z"/><path class="cls-1" d="M16,19.53a3.87,3.87,0,1,1,3.88-3.87A3.87,3.87,0,0,1,16,19.53Z"/></g></g></svg>