<svg xmlns="http://www.w3.org/2000/svg" xmlns:xlink="http://www.w3.org/1999/xlink" width="114.8" height="73.7" viewBox="0 0 114.8 73.7"><defs><linearGradient id="linear-gradient" x1="-0.18" y1="71.28" x2="114.62" y2="71.28" gradientUnits="userSpaceOnUse"><stop offset="0" stop-color="#00425a"/><stop offset="0.32" stop-color="#007898"/><stop offset="0.52" stop-color="#0082a7"/><stop offset="0.72" stop-color="#00708e"/><stop offset="1" stop-color="#00435a"/></linearGradient><linearGradient id="linear-gradient-2" x1="-0.27" y1="71.28" x2="115.41" y2="71.28" xlink:href="#linear-gradient"/><linearGradient id="linear-gradient-3" x1="-0.3" y1="71.28" x2="115.54" y2="71.28" xlink:href="#linear-gradient"/><linearGradient id="linear-gradient-4" x1="-0.27" y1="71.28" x2="115.49" y2="71.28" xlink:href="#linear-gradient"/><linearGradient id="linear-gradient-5" x1="-0.2" y1="71.28" x2="115.39" y2="71.28" xlink:href="#linear-gradient"/><linearGradient id="linear-gradient-6" x1="-0.27" y1="71.28" x2="115.53" y2="71.28" xlink:href="#linear-gradient"/><linearGradient id="linear-gradient-8" x1="-0.25" y1="71.28" x2="115.51" y2="71.28" xlink:href="#linear-gradient"/><linearGradient id="linear-gradient-9" x1="-0.27" y1="71.28" x2="115.53" y2="71.28" xlink:href="#linear-gradient"/><linearGradient id="linear-gradient-10" x1="-0.29" y1="71.28" x2="115.54" y2="71.28" xlink:href="#linear-gradient"/><linearGradient id="linear-gradient-11" x1="-0.11" y1="71.28" x2="115.5" y2="71.28" xlink:href="#linear-gradient"/><linearGradient id="linear-gradient-12" x1="-0.29" y1="71.28" x2="115.54" y2="71.28" xlink:href="#linear-gradient"/><linearGradient id="linear-gradient-13" x1="-0.29" y1="71.52" x2="115.53" y2="71.52" xlink:href="#linear-gradient"/><linearGradient id="linear-gradient-14" x1="-0.29" y1="71.52" x2="115.54" y2="71.52" xlink:href="#linear-gradient"/></defs><title>Asset 1</title><g id="Layer_2" data-name="Layer 2"><g id="Layer_1-2" data-name="Layer 1"><path d="M12.89,73.64h-.77V68.92h.77Z" style="fill:url(#linear-gradient)"/><path d="M22.32,68.92v4.72h-.68V70.41c0-.06,0-.11,0-.18s0-.12,0-.18l-1.52,2.8a.27.27,0,0,1-.27.17h-.11a.28.28,0,0,1-.27-.17L18,70c0,.06,0,.13,0,.19v3.41h-.68V68.92h.58l.16,0a.22.22,0,0,1,.1.11l1.51,2.74a1.86,1.86,0,0,1,.1.2l.08.2a1.67,1.67,0,0,1,.08-.2l.09-.2,1.5-2.74c0-.06.06-.1.1-.11l.16,0Z" style="fill:url(#linear-gradient-2)"/><path d="M30.67,73.64h-.59a.21.21,0,0,1-.16,0,.23.23,0,0,1-.1-.12l-.39-1h-2l-.39,1a.47.47,0,0,1-.09.12.25.25,0,0,1-.17,0h-.59L28,68.92h.78Zm-1.45-1.77-.65-1.72a4.51,4.51,0,0,1-.16-.51,1.87,1.87,0,0,1-.08.28,2,2,0,0,1-.08.23l-.65,1.72Z" style="fill:url(#linear-gradient-3)"/><path d="M38.24,71.32v1.87a2.73,2.73,0,0,1-1.64.51,2.87,2.87,0,0,1-1-.18,2.37,2.37,0,0,1-.79-.5,2.06,2.06,0,0,1-.5-.76,2.59,2.59,0,0,1-.18-1,2.84,2.84,0,0,1,.17-1,2.16,2.16,0,0,1,.49-.76,2.34,2.34,0,0,1,.76-.5,2.93,2.93,0,0,1,1-.17,2.86,2.86,0,0,1,.53,0,2.06,2.06,0,0,1,.46.13,1.76,1.76,0,0,1,.39.19,1.85,1.85,0,0,1,.32.25l-.22.35a.21.21,0,0,1-.13.1.24.24,0,0,1-.18,0l-.2-.12-.25-.12a2,2,0,0,0-.31-.08,1.85,1.85,0,0,0-.43,0,1.83,1.83,0,0,0-.68.12,1.43,1.43,0,0,0-.51.36,1.58,1.58,0,0,0-.33.55,2.31,2.31,0,0,0-.11.72A2.24,2.24,0,0,0,35,72a1.65,1.65,0,0,0,.34.56,1.55,1.55,0,0,0,.54.36,2,2,0,0,0,.71.12A1.64,1.64,0,0,0,37.1,73a2.75,2.75,0,0,0,.45-.17V71.9h-.66a.16.16,0,0,1-.12,0,.13.13,0,0,1,0-.1v-.44Z" style="fill:url(#linear-gradient-4)"/><path d="M45.38,73v.62H42.43V68.92h2.94v.62H43.2V71h1.74v.6H43.2V73Z" style="fill:url(#linear-gradient-5)"/><path d="M55.17,69.54v1.51H57v.62H55.17v2H54.4V68.92h3v.62Z" style="fill:url(#linear-gradient-6)"/><path d="M65,73.64h-.6a.22.22,0,0,1-.16,0,.27.27,0,0,1-.09-.12l-.4-1h-2l-.39,1a.35.35,0,0,1-.1.12.21.21,0,0,1-.16,0h-.59l1.87-4.72h.78Zm-1.45-1.77-.65-1.72a3.1,3.1,0,0,1-.16-.51c0,.1-.05.2-.08.28l-.08.23-.65,1.72Z" style="fill:url(#linear-gradient-3)"/><path d="M71.94,72.59a.16.16,0,0,1,.11,0l.3.33a2,2,0,0,1-.71.54,2.51,2.51,0,0,1-1,.19,2.35,2.35,0,0,1-.94-.18A2.12,2.12,0,0,1,69,73a2.07,2.07,0,0,1-.45-.76,2.8,2.8,0,0,1-.16-1,2.54,2.54,0,0,1,.17-1,2.31,2.31,0,0,1,.47-.77,2.08,2.08,0,0,1,.74-.49,2.39,2.39,0,0,1,.94-.18,2.29,2.29,0,0,1,.9.16,2.12,2.12,0,0,1,.68.45l-.25.35L72,69.9l-.1,0a.29.29,0,0,1-.15-.06l-.21-.13a1.72,1.72,0,0,0-.33-.14,1.65,1.65,0,0,0-.48-.06,1.52,1.52,0,0,0-.62.12,1.39,1.39,0,0,0-.49.34,1.66,1.66,0,0,0-.32.55,2.45,2.45,0,0,0-.11.74,2.19,2.19,0,0,0,.12.75,1.85,1.85,0,0,0,.32.55,1.39,1.39,0,0,0,.49.34,1.5,1.5,0,0,0,.6.12L71,73l.29-.07a1.15,1.15,0,0,0,.25-.12l.23-.18A.19.19,0,0,1,71.94,72.59Z" style="fill:url(#linear-gradient-8)"/><path d="M79.55,69.56H78.07v4.08h-.76V69.56H75.83v-.64h3.72Z" style="fill:url(#linear-gradient-9)"/><path d="M87.74,71.28a2.74,2.74,0,0,1-.17,1,2.35,2.35,0,0,1-.48.76,2.15,2.15,0,0,1-.75.5,2.68,2.68,0,0,1-1.93,0,2.11,2.11,0,0,1-.74-.5,2.06,2.06,0,0,1-.48-.76,2.54,2.54,0,0,1-.18-1,2.58,2.58,0,0,1,.18-1,2.18,2.18,0,0,1,1.22-1.26,2.68,2.68,0,0,1,1.93,0,2.29,2.29,0,0,1,.75.5,2.58,2.58,0,0,1,.48.76A2.78,2.78,0,0,1,87.74,71.28Zm-.79,0a2.11,2.11,0,0,0-.11-.73,1.41,1.41,0,0,0-.31-.55,1.37,1.37,0,0,0-.5-.35,1.67,1.67,0,0,0-.65-.12,1.76,1.76,0,0,0-.66.12,1.46,1.46,0,0,0-.5.35,1.55,1.55,0,0,0-.31.55,2.51,2.51,0,0,0,0,1.47,1.64,1.64,0,0,0,.31.55,1.43,1.43,0,0,0,.5.34,1.76,1.76,0,0,0,.66.12,1.67,1.67,0,0,0,.65-.12,1.35,1.35,0,0,0,.5-.34,1.49,1.49,0,0,0,.31-.55A2.13,2.13,0,0,0,87,71.28Z" style="fill:url(#linear-gradient-10)"/><path d="M95.45,73.64h-.68a.32.32,0,0,1-.3-.15l-1.1-1.59a.34.34,0,0,0-.12-.12.35.35,0,0,0-.2,0h-.42v1.9h-.77V68.92h1.39a2.69,2.69,0,0,1,.8.1,1.42,1.42,0,0,1,.55.27,1,1,0,0,1,.32.42,1.35,1.35,0,0,1,.11.55,1.44,1.44,0,0,1-.08.46,1.28,1.28,0,0,1-.21.38,1.22,1.22,0,0,1-.34.3,1.42,1.42,0,0,1-.47.2.82.82,0,0,1,.25.24Zm-2.22-2.46a1.6,1.6,0,0,0,.46-.06.88.88,0,0,0,.33-.18.74.74,0,0,0,.19-.27.86.86,0,0,0,.07-.36.73.73,0,0,0-.26-.59,1.26,1.26,0,0,0-.77-.2h-.62v1.66Z" style="fill:url(#linear-gradient-11)"/><path d="M101,71.79v1.85h-.76V71.79l-1.73-2.87h.68a.28.28,0,0,1,.16,0,.38.38,0,0,1,.09.12l1,1.7a1.34,1.34,0,0,1,.12.24,2.29,2.29,0,0,1,.1.23.92.92,0,0,1,.09-.23,1.34,1.34,0,0,1,.12-.24l1-1.7a.31.31,0,0,1,.09-.11.23.23,0,0,1,.16-.06h.68Z" style="fill:url(#linear-gradient-12)"/><rect y="71.32" width="9.05" height="0.42" style="fill:url(#linear-gradient-13)"/><rect x="105.76" y="71.32" width="9.05" height="0.42" style="fill:url(#linear-gradient-14)"/><path d="M20.62,55.53a10.92,10.92,0,0,1-.78.9,7.63,7.63,0,0,1-5.59,2.31,7.6,7.6,0,0,1-5.58-2.31,7.88,7.88,0,0,1,0-11.17A7.6,7.6,0,0,1,14.25,43a7.62,7.62,0,0,1,5.59,2.3,10.43,10.43,0,0,1,.82,1v-2H22v11a7.41,7.41,0,0,1-2.26,5.44,7.6,7.6,0,0,1-5.58,2.31,7.65,7.65,0,0,1-5.6-2.31,8.73,8.73,0,0,1-.84-1L9,59.15c.15.17.3.34.46.5a6.33,6.33,0,0,0,4.62,1.91,6.28,6.28,0,0,0,4.6-1.91A6.22,6.22,0,0,0,20.62,55.53Zm0-6a6.55,6.55,0,0,0-6.4-5.17,6.53,6.53,0,0,0,0,13.06,6.3,6.3,0,0,0,4.62-1.92,6.37,6.37,0,0,0,1.78-3.23Z" style="fill:#0084a8"/><path d="M26.33,44.21h1.3v2.58a7.82,7.82,0,0,1,.93-1.11,5.4,5.4,0,0,1,3.51-1.8v1.41a4,4,0,0,0-2.53,1.37,6.18,6.18,0,0,0-1.91,4.39v7.29h-1.3Z" style="fill:#0084a8"/><path d="M50.19,58.34H48.9V55.46a9.35,9.35,0,0,1-.82,1A7.91,7.91,0,0,1,36.9,45.25a7.89,7.89,0,0,1,11.18,0,10.43,10.43,0,0,1,.82,1v-2h1.29ZM48.9,52.13V49.57a6.54,6.54,0,0,0-11-3.34,6.52,6.52,0,0,0,9.23,9.22A6.31,6.31,0,0,0,48.9,52.13Z" style="fill:#0084a8"/><path d="M54.8,44.21h1.29v2a9,9,0,0,1,.82-1A7.9,7.9,0,0,1,68.08,56.43a7.91,7.91,0,0,1-11.17,0,10.11,10.11,0,0,1-.82-1V63H54.8Zm1.29,5.28V52.2a6.5,6.5,0,1,0,0-2.71Z" style="fill:#0084a8"/><path d="M74,35.32h1.3V45a5.43,5.43,0,0,1,3.94-1.58,5.42,5.42,0,0,1,5.68,5.52v9.45H83.61V49a4.15,4.15,0,0,0-1.31-3.07,4.37,4.37,0,0,0-7,1.18V58.34H74Z" style="fill:#0084a8"/><path d="M90.8,44.21V58.34H89.5V44.21Z" style="fill:#0084a8"/><path d="M107.51,54.94l1.37.49a7.9,7.9,0,0,1-.85,1A7.91,7.91,0,0,1,96.85,45.25a7.89,7.89,0,0,1,11.18,0,8.51,8.51,0,0,1,.85,1l-1.37.5c-.14-.17-.29-.34-.46-.52a6.53,6.53,0,1,0,0,9.24A5.43,5.43,0,0,0,107.51,54.94Z" style="fill:#0084a8"/><path d="M5.51,38.16V50.44H.15V14.82H5.51v2.41q3.89-4.56,9-4.56A14.23,14.23,0,0,1,25,17a14.19,14.19,0,0,1,4.31,10.43A14.25,14.25,0,0,1,25,37.85a14.2,14.2,0,0,1-10.43,4.32A12.2,12.2,0,0,1,5.51,38.16Zm0-12.82v4.17A8.62,8.62,0,0,0,8,34a8.9,8.9,0,0,0,6.53,2.7A9,9,0,0,0,21.1,34a9.26,9.26,0,0,0,0-13.07,8.93,8.93,0,0,0-6.55-2.72A8.88,8.88,0,0,0,8,20.88,8.6,8.6,0,0,0,5.51,25.34Z" style="fill:#141111"/><path d="M41.57,14.82V41.47H36.21V14.82Z" style="fill:#141111"/><path d="M114.58,0V41.47h-5.39V0Z" style="fill:#141111"/><path d="M97.61,32.33c-.69.83-1.15,1.36-1.37,1.61a9,9,0,0,1-6.56,2.69q-3.56,0-4.89-1.19L98.9,21.32l2.7-2.72c-.81-.92-1.3-1.46-1.48-1.63a17.24,17.24,0,0,0-1.27-1.17A14.77,14.77,0,0,0,79.27,17a14.19,14.19,0,0,0-4.33,10.44,14.23,14.23,0,0,0,4.33,10.44,14.74,14.74,0,0,0,20.85,0,34.58,34.58,0,0,0,2.85-3.6ZM80.46,27.41a9.25,9.25,0,0,1,9.22-9.25c2.11,0,3.46.23,4.07.7L81.16,31.48C80.69,30.85,80.46,29.5,80.46,27.41Zm10.34,14H89.5v-1.3h1.3Z" style="fill:#141111"/><rect x="36.21" y="5.87" width="5.36" height="5.36" style="fill:#0084a8"/><rect x="45.43" y="39.89" width="1.57" height="1.57" style="fill:#00425a"/><rect x="46.99" y="39.89" width="1.57" height="1.57" style="fill:#000a15"/><rect x="48.56" y="39.89" width="1.57" height="1.57" style="fill:#00202f"/><rect x="50.13" y="39.89" width="1.57" height="1.57" style="fill:#00202f"/><rect x="65.8" y="39.89" width="1.57" height="1.57" style="fill:#00425a"/><rect x="67.36" y="39.89" width="1.57" height="1.57" style="fill:#00425a"/><rect x="70.5" y="39.89" width="1.57" height="1.57" style="fill:#000a15"/><rect x="45.43" y="38.32" width="1.57" height="1.57" style="fill:#00202f"/><rect x="46.99" y="38.32" width="1.57" height="1.57" style="fill:#00506e"/><rect x="48.56" y="38.32" width="1.57" height="1.57" style="fill:#00202f"/><rect x="51.69" y="38.32" width="1.57" height="1.57" style="fill:#00202f"/><rect x="64.23" y="38.32" width="1.57" height="1.57" style="fill:#003346"/><rect x="65.8" y="38.32" width="1.57" height="1.57" style="fill:#00202f"/><rect x="67.36" y="38.32" width="1.57" height="1.57" style="fill:#00506e"/><rect x="45.43" y="36.76" width="1.57" height="1.57" style="fill:#00506e"/><rect x="46.99" y="36.76" width="1.57" height="1.57" style="fill:#00202f"/><rect x="48.56" y="36.76" width="1.57" height="1.57" style="fill:#00202f"/><rect x="50.13" y="36.76" width="1.57" height="1.57" style="fill:#00202f"/><rect x="53.26" y="36.76" width="1.57" height="1.57" style="fill:#00425a"/><rect x="62.66" y="36.76" width="1.57" height="1.57" style="fill:#00425a"/><rect x="64.23" y="36.76" width="1.57" height="1.57" style="fill:#003346"/><rect x="65.8" y="36.76" width="1.57" height="1.57" style="fill:#00202f"/><rect x="67.36" y="30.49" width="1.57" height="1.57" style="fill:#003346"/><rect x="68.93" y="36.76" width="1.57" height="1.57" style="fill:#00202f"/><rect x="70.5" y="36.76" width="1.57" height="1.57" style="fill:#00425a"/><rect x="46.99" y="35.19" width="1.57" height="1.57" style="fill:#00425a"/><rect x="50.13" y="35.19" width="1.57" height="1.57" style="fill:#00425a"/><rect x="51.69" y="35.19" width="1.57" height="1.57" style="fill:#00425a"/><rect x="53.26" y="35.19" width="1.57" height="1.57" style="fill:#00425a"/><rect x="54.83" y="35.19" width="1.57" height="1.57" style="fill:#00425a"/><rect x="61.1" y="35.19" width="1.57" height="1.57" style="fill:#00425a"/><rect x="62.66" y="35.19" width="1.57" height="1.57" style="fill:#003346"/><rect x="64.23" y="35.19" width="1.57" height="1.57" style="fill:#00506e"/><rect x="65.8" y="35.19" width="1.57" height="1.57" style="fill:#00425a"/><rect x="67.36" y="35.19" width="1.57" height="1.57" style="fill:#00202f"/><rect x="68.93" y="35.19" width="1.57" height="1.57" style="fill:#00425a"/><rect x="50.13" y="33.62" width="1.57" height="1.57" style="fill:#00425a"/><rect x="51.69" y="33.62" width="1.57" height="1.57" style="fill:#00425a"/><rect x="53.26" y="33.62" width="1.57" height="1.57" style="fill:#003346"/><rect x="54.83" y="33.62" width="1.57" height="1.57" style="fill:#003346"/><rect x="56.39" y="33.62" width="1.57" height="1.57" style="fill:#00425a"/><rect x="59.53" y="33.62" width="1.57" height="1.57" style="fill:#00425a"/><rect x="61.1" y="33.62" width="1.57" height="1.57" style="fill:#003346"/><rect x="64.23" y="33.62" width="1.57" height="1.57" style="fill:#003346"/><rect x="65.8" y="33.62" width="1.57" height="1.57" style="fill:#00425a"/><rect x="67.36" y="33.62" width="1.57" height="1.57" style="fill:#00425a"/><rect x="48.7" y="30.63" width="1.57" height="1.57" style="fill:#00425a"/><rect x="51.69" y="32.06" width="1.57" height="1.57" style="fill:#00425a"/><rect x="53.26" y="32.06" width="1.57" height="1.57" style="fill:#003346"/><rect x="54.83" y="32.06" width="1.57" height="1.57" style="fill:#00506e"/><rect x="56.39" y="32.06" width="1.57" height="1.57" style="fill:#003346"/><rect x="57.96" y="32.06" width="1.57" height="1.57" style="fill:#00425a"/><rect x="61.1" y="32.06" width="1.57" height="1.57" style="fill:#003346"/><rect x="62.66" y="32.06" width="1.57" height="1.57" style="fill:#003346"/><rect x="64.23" y="32.06" width="1.57" height="1.57" style="fill:#00425a"/><rect x="65.8" y="32.06" width="1.57" height="1.57" style="fill:#00425a"/><rect x="51.69" y="30.49" width="1.57" height="1.57" style="fill:#00506e"/><rect x="53.26" y="30.49" width="1.57" height="1.57" style="fill:#00202f"/><rect x="54.83" y="30.49" width="1.57" height="1.57" style="fill:#003346"/><rect x="56.39" y="30.49" width="1.57" height="1.57" style="fill:#003346"/><rect x="57.96" y="30.49" width="1.57" height="1.57" style="fill:#003346"/><rect x="59.53" y="30.49" width="1.57" height="1.57" style="fill:#003346"/><rect x="62.66" y="30.49" width="1.57" height="1.57" style="fill:#003346"/><rect x="64.23" y="30.49" width="1.57" height="1.57" style="fill:#00425a"/><rect x="53.26" y="28.92" width="1.57" height="1.57" style="fill:#00506e"/><rect x="54.83" y="28.92" width="1.57" height="1.57" style="fill:#00202f"/><rect x="56.39" y="28.92" width="1.57" height="1.57" style="fill:#003346"/><rect x="59.53" y="28.92" width="1.57" height="1.57" style="fill:#003346"/><rect x="61.1" y="28.92" width="1.57" height="1.57" style="fill:#003346"/><rect x="62.66" y="28.92" width="1.57" height="1.57" style="fill:#00425a"/><rect x="56.39" y="27.35" width="1.57" height="1.57" style="fill:#00506e"/><rect x="57.96" y="27.35" width="1.57" height="1.57" style="fill:#003346"/><rect x="59.53" y="27.35" width="1.57" height="1.57" style="fill:#003346"/><rect x="61.1" y="27.35" width="1.57" height="1.57" style="fill:#003346"/><rect x="53.26" y="25.79" width="1.57" height="1.57" style="fill:#00506e"/><rect x="54.83" y="25.79" width="1.57" height="1.57" style="fill:#00506e"/><rect x="56.39" y="25.79" width="1.57" height="1.57" style="fill:#003346"/><rect x="57.96" y="25.79" width="1.57" height="1.57" style="fill:#00425a"/><rect x="62.66" y="25.79" width="1.57" height="1.57" style="fill:#003346"/><rect x="51.69" y="24.22" width="1.57" height="1.57" style="fill:#00202f"/><rect x="53.26" y="24.22" width="1.57" height="1.57" style="fill:#00202f"/><rect x="54.83" y="24.22" width="1.57" height="1.57" style="fill:#003346"/><rect x="56.39" y="24.22" width="1.57" height="1.57" style="fill:#003346"/><rect x="57.96" y="24.22" width="1.57" height="1.57" style="fill:#00425a"/><rect x="59.53" y="24.22" width="1.57" height="1.57" style="fill:#003346"/><rect x="61.1" y="24.22" width="1.57" height="1.57" style="fill:#003346"/><rect x="62.66" y="24.22" width="1.57" height="1.57" style="fill:#00506e"/><rect x="64.23" y="24.22" width="1.57" height="1.57" style="fill:#00425a"/><rect x="50.13" y="22.65" width="1.57" height="1.57" style="fill:#00425a"/><rect x="51.69" y="22.65" width="1.57" height="1.57" style="fill:#003346"/><rect x="53.26" y="22.65" width="1.57" height="1.57" style="fill:#003346"/><rect x="54.83" y="22.65" width="1.57" height="1.57" style="fill:#00425a"/><rect x="57.96" y="22.65" width="1.57" height="1.57" style="fill:#00425a"/><rect x="59.53" y="22.65" width="1.57" height="1.57" style="fill:#00425a"/><rect x="61.1" y="22.65" width="1.57" height="1.57" style="fill:#00506e"/><rect x="62.66" y="22.65" width="1.57" height="1.57" style="fill:#003346"/><rect x="64.23" y="22.65" width="1.57" height="1.57" style="fill:#003346"/><rect x="65.8" y="22.65" width="1.57" height="1.57" style="fill:#00425a"/><rect x="48.56" y="21.09" width="1.57" height="1.57" style="fill:#003346"/><rect x="50.13" y="21.09" width="1.57" height="1.57" style="fill:#003346"/><rect x="51.69" y="21.09" width="1.57" height="1.57" style="fill:#003346"/><rect x="53.26" y="21.09" width="1.57" height="1.57" style="fill:#00506e"/><rect x="59.53" y="21.09" width="1.57" height="1.57" style="fill:#00425a"/><rect x="61.1" y="21.09" width="1.57" height="1.57" style="fill:#00425a"/><rect x="62.66" y="21.09" width="1.57" height="1.57" style="fill:#003346"/><rect x="64.23" y="21.09" width="1.57" height="1.57" style="fill:#003346"/><rect x="65.8" y="21.09" width="1.57" height="1.57" style="fill:#003346"/><rect x="67.36" y="21.09" width="1.57" height="1.57" style="fill:#00425a"/><rect x="46.99" y="19.52" width="1.57" height="1.57" style="fill:#00425a"/><rect x="48.56" y="19.52" width="1.57" height="1.57" style="fill:#00506e"/><rect x="50.13" y="19.52" width="1.57" height="1.57" style="fill:#003346"/><rect x="51.69" y="19.52" width="1.57" height="1.57" style="fill:#00506e"/><rect x="53.26" y="19.52" width="1.57" height="1.57" style="fill:#00425a"/><rect x="54.83" y="19.52" width="1.57" height="1.57" style="fill:#00425a"/><rect x="59.62" y="18.05" width="1.57" height="1.57" style="fill:#00425a"/><rect x="62.66" y="19.52" width="1.57" height="1.57" style="fill:#00202f"/><rect x="64.23" y="19.52" width="1.57" height="1.57" style="fill:#00202f"/><rect x="65.8" y="19.52" width="1.57" height="1.57" style="fill:#00506e"/><rect x="67.36" y="19.52" width="1.57" height="1.57" style="fill:#00425a"/><rect x="68.93" y="19.52" width="1.57" height="1.57" style="fill:#00425a"/><rect x="45.43" y="17.95" width="1.57" height="1.57" style="fill:#00425a"/><rect x="46.99" y="17.95" width="1.57" height="1.57" style="fill:#003346"/><rect x="48.56" y="17.95" width="1.57" height="1.57" style="fill:#003346"/><rect x="50.13" y="17.95" width="1.57" height="1.57" style="fill:#003346"/><rect x="51.69" y="17.95" width="1.57" height="1.57" style="fill:#00425a"/><rect x="53.26" y="14.82" width="1.57" height="1.57" style="fill:#00425a"/><rect x="62.66" y="17.95" width="1.57" height="1.57" style="fill:#00202f"/><rect x="64.23" y="17.95" width="1.57" height="1.57" style="fill:#00506e"/><rect x="65.8" y="17.95" width="1.57" height="1.57" style="fill:#00202f"/><rect x="67.36" y="17.95" width="1.57" height="1.57" style="fill:#003346"/><rect x="68.93" y="17.95" width="1.57" height="1.57" style="fill:#00425a"/><rect x="70.5" y="17.95" width="1.57" height="1.57" style="fill:#00425a"/><rect x="45.43" y="16.39" width="1.57" height="1.57" style="fill:#00425a"/><rect x="46.99" y="11.24" width="1.57" height="1.57" style="fill:#003346"/><rect x="48.56" y="16.39" width="1.57" height="1.57" style="fill:#003346"/><rect x="50.13" y="16.39" width="1.57" height="1.57" style="fill:#00425a"/><rect x="51.69" y="16.39" width="1.57" height="1.57" style="fill:#00425a"/><rect x="64.23" y="16.39" width="1.57" height="1.57" style="fill:#00425a"/><rect x="65.8" y="16.39" width="1.57" height="1.57" style="fill:#003346"/><rect x="67.36" y="16.39" width="1.57" height="1.57" style="fill:#003346"/><rect x="68.93" y="16.39" width="1.57" height="1.57" style="fill:#00202f"/><rect x="70.5" y="16.39" width="1.57" height="1.57" style="fill:#000a15"/><rect x="43.86" y="13.25" width="1.57" height="1.57" style="fill:#00425a"/><rect x="46.99" y="14.82" width="1.57" height="1.57" style="fill:#00425a"/><rect x="65.8" y="14.82" width="1.57" height="1.57" style="fill:#00425a"/><rect x="67.36" y="14.82" width="1.57" height="1.57" style="fill:#00425a"/><rect x="68.93" y="14.82" width="1.57" height="1.57" style="fill:#00202f"/><rect x="70.5" y="14.82" width="1.57" height="1.57" style="fill:#00202f"/><rect x="68.93" y="39.89" width="1.57" height="1.57" style="fill:#006b88"/><rect x="50.13" y="38.32" width="1.57" height="1.57" style="fill:#006b88"/><rect x="68.93" y="38.32" width="1.57" height="1.57" style="fill:#006b88"/><rect x="70.5" y="38.32" width="1.57" height="1.57" style="fill:#006b88"/><rect x="51.69" y="36.76" width="1.57" height="1.57" style="fill:#006b88"/><rect x="48.56" y="35.19" width="1.57" height="1.57" style="fill:#006b88"/><rect x="48.56" y="33.62" width="1.57" height="1.57" style="fill:#006b88"/><rect x="62.66" y="33.62" width="1.57" height="1.57" style="fill:#0080b3"/><rect x="59.53" y="32.06" width="1.57" height="1.57" style="fill:#0080b3"/><rect x="61.1" y="30.49" width="1.57" height="1.57" style="fill:#0080b3"/><rect x="57.96" y="28.92" width="1.57" height="1.57" style="fill:#006b88"/><rect x="54.83" y="27.35" width="1.57" height="1.57" style="fill:#006b88"/><rect x="59.53" y="25.79" width="1.57" height="1.57" style="fill:#006b88"/><rect x="61.1" y="25.79" width="1.57" height="1.57" style="fill:#006b88"/><rect x="56.39" y="22.65" width="1.57" height="1.57" style="fill:#006b88"/><rect x="54.83" y="21.09" width="1.57" height="1.57" style="fill:#006b88"/><rect x="56.39" y="21.09" width="1.57" height="1.57" style="fill:#006b88"/><rect x="48.56" y="14.82" width="1.57" height="1.57" style="fill:#006b88"/><rect x="50.13" y="13.25" width="1.57" height="1.57" style="fill:#006b88"/></g></g></svg>